<svg xmlns="http://www.w3.org/2000/svg" width="224" height="30" viewBox="0 0 224 30" fill="none"><path d="M3.88728 20.0925L0.418945 22.5361C1.02328 23.7973 1.83781 24.9666 2.86255 26.0439C3.91356 27.1212 5.12222 27.9883 6.48853 28.6451C7.88112 29.2757 9.37882 29.591 10.9816 29.591C12.164 29.591 13.2938 29.394 14.3711 28.9999C15.4747 28.632 16.46 28.1065 17.3271 27.4233C18.1942 26.7139 18.8773 25.8468 19.3766 24.8221C19.9021 23.7973 20.1648 22.6412 20.1648 21.3537C20.1648 20.1451 19.9546 19.0941 19.5342 18.2007C19.1138 17.2811 18.562 16.4928 17.8789 15.8359C17.222 15.1791 16.4731 14.6273 15.6323 14.1806C14.8178 13.7339 13.9901 13.3661 13.1493 13.077C11.6779 12.5515 10.4824 12.0392 9.56274 11.5399C8.64311 11.0407 7.95995 10.5152 7.51327 9.96341C7.09287 9.38535 6.88266 8.74161 6.88266 8.03218C6.88266 7.24392 7.18483 6.56076 7.78916 5.9827C8.39349 5.37837 9.3394 5.07621 10.6269 5.07621C11.5465 5.07621 12.3479 5.26013 13.0311 5.62799C13.7405 5.96957 14.358 6.44252 14.8835 7.04685C15.409 7.62491 15.8557 8.25552 16.2235 8.93867L19.9678 6.81038C19.5211 5.83819 18.8773 4.90542 18.0365 4.01206C17.1957 3.1187 16.171 2.38299 14.9623 1.80493C13.7536 1.2006 12.3348 0.898438 10.7057 0.898438C9.05037 0.898438 7.56582 1.21374 6.25206 1.84435C4.96457 2.47496 3.93983 3.35518 3.17785 4.48501C2.41587 5.58857 2.03488 6.87606 2.03488 8.34748C2.03488 9.63497 2.28449 10.7385 2.78372 11.6582C3.28295 12.5515 3.91356 13.3135 4.67554 13.9441C5.43752 14.5484 6.23892 15.0608 7.07973 15.4812C7.92054 15.8753 8.68252 16.1907 9.36568 16.4271C10.5218 16.8475 11.5465 17.2811 12.4399 17.7278C13.3332 18.1482 14.0164 18.6737 14.4894 19.3043C14.9886 19.9086 15.2382 20.71 15.2382 21.7085C15.2382 22.812 14.8441 23.7054 14.0558 24.3885C13.2676 25.0717 12.2428 25.4133 10.9816 25.4133C9.95687 25.4133 9.01096 25.1899 8.14388 24.7433C7.30307 24.2966 6.52795 23.6791 5.81852 22.8909C5.13536 22.1026 4.49161 21.1698 3.88728 20.0925Z" fill="#F0F0F0"></path><path d="M25.0954 1.41081V28.9999H29.825V1.41081H25.0954Z" fill="#F0F0F0"></path><path d="M36.1465 1.41081V28.9999H51.754V24.8221H40.7972V1.41081H36.1465Z" fill="#F0F0F0"></path><path d="M57.1711 16.3483H76.8775V12.0523H57.1711V16.3483ZM73.8428 1.41081V28.9999H78.4935V1.41081H73.8428ZM55.3187 1.41081V28.9999H59.9694V1.41081H55.3187Z" fill="#F0F0F0"></path><path d="M88.1946 15.2053C88.1946 13.3135 88.6019 11.6319 89.4164 10.1605C90.2309 8.66278 91.3345 7.49353 92.7271 6.65272C94.146 5.81192 95.7619 5.39151 97.5749 5.39151C99.4404 5.39151 101.069 5.81192 102.462 6.65272C103.881 7.49353 104.985 8.66278 105.773 10.1605C106.561 11.6319 106.955 13.3135 106.955 15.2053C106.955 17.0971 106.548 18.7788 105.733 20.2502C104.945 21.7216 103.842 22.8909 102.423 23.7579C101.03 24.5987 99.4141 25.0191 97.5749 25.0191C95.7619 25.0191 94.146 24.5987 92.7271 23.7579C91.3345 22.8909 90.2309 21.7216 89.4164 20.2502C88.6019 18.7788 88.1946 17.0971 88.1946 15.2053ZM83.268 15.2053C83.268 17.2548 83.6227 19.1598 84.3321 20.9202C85.0416 22.6806 86.04 24.2046 87.3275 25.4921C88.615 26.7796 90.1258 27.7912 91.86 28.5269C93.6204 29.2363 95.5254 29.591 97.5749 29.591C99.6769 29.591 101.595 29.2363 103.329 28.5269C105.063 27.7912 106.574 26.7796 107.862 25.4921C109.149 24.2046 110.148 22.6806 110.857 20.9202C111.566 19.1598 111.921 17.2548 111.921 15.2053C111.921 13.1296 111.566 11.2246 110.857 9.49045C110.148 7.75629 109.136 6.25859 107.822 4.99738C106.535 3.70989 105.024 2.71143 103.29 2.002C101.556 1.26629 99.6506 0.898438 97.5749 0.898438C95.5517 0.898438 93.6599 1.26629 91.8994 2.002C90.1652 2.71143 88.6413 3.70989 87.3275 4.99738C86.04 6.25859 85.0416 7.75629 84.3321 9.49045C83.6227 11.2246 83.268 13.1296 83.268 15.2053Z" fill="#F0F0F0"></path><path d="M116.483 1.41081V19.9349C116.483 21.4588 116.719 22.8252 117.192 24.0338C117.691 25.2162 118.388 26.2278 119.281 27.0686C120.174 27.9094 121.238 28.5532 122.473 28.9999C123.708 29.4465 125.061 29.6699 126.533 29.6699C128.004 29.6699 129.357 29.4465 130.592 28.9999C131.827 28.5532 132.892 27.9094 133.785 27.0686C134.704 26.2278 135.401 25.2162 135.874 24.0338C136.373 22.8252 136.623 21.4588 136.623 19.9349V1.41081H131.932V19.7378C131.932 21.4194 131.473 22.7857 130.553 23.8368C129.66 24.8878 128.32 25.4133 126.533 25.4133C124.772 25.4133 123.432 24.8878 122.513 23.8368C121.593 22.7857 121.133 21.4194 121.133 19.7378V1.41081H116.483Z" fill="#F0F0F0"></path><path d="M145.619 28.9999H159.531V24.9009H145.619V28.9999ZM145.619 5.50975H159.531V1.41081H145.619V5.50975ZM145.619 16.2301H158.743V12.2099H145.619V16.2301ZM142.741 1.41081V28.9999H147.313V1.41081H142.741Z" fill="#F0F0F0"></path><path d="M162.696 5.70681H169.987V28.9999H174.638V5.70681H181.929V1.41081H162.696V5.70681Z" fill="#F0F0F0"></path><path d="M183.946 5.70681H191.238V28.9999H195.889V5.70681H203.18V1.41081H183.946V5.70681Z" fill="#F0F0F0"></path><path d="M209.64 28.9999H223.553V24.9009H209.64V28.9999ZM209.64 5.50975H223.553V1.41081H209.64V5.50975ZM209.64 16.2301H222.764V12.2099H209.64V16.2301ZM206.763 1.41081V28.9999H211.335V1.41081H206.763Z" fill="#F0F0F0"></path></svg>