<svg xmlns="http://www.w3.org/2000/svg" width="224" height="20" viewBox="0 0 224 20" fill="none"><path d="M7.58 19V6.1H12.94V5H0.4V6.1H5.76V19H7.58ZM17.9336 12C17.9336 12.7467 18.0736 13.5467 18.3536 14.4C18.6469 15.24 19.1003 16.02 19.7136 16.74C20.3269 17.46 21.1069 18.06 22.0536 18.54C23.0003 19.0067 24.1336 19.24 25.4536 19.24C26.3469 19.24 27.1536 19.1333 27.8736 18.92C28.6069 18.6933 29.2603 18.3933 29.8336 18.02C30.4203 17.6467 30.9269 17.22 31.3536 16.74C31.7803 16.2467 32.1269 15.7333 32.3936 15.2C32.6736 14.6533 32.8803 14.1067 33.0136 13.56C33.1603 13.0133 33.2336 12.4933 33.2336 12C33.2336 11.2533 33.0803 10.46 32.7736 9.62C32.4669 8.76667 31.9936 7.98 31.3536 7.26C30.7136 6.54 29.9003 5.94667 28.9136 5.48C27.9403 5 26.7869 4.76 25.4536 4.76C24.1336 4.76 23.0003 4.99333 22.0536 5.46C21.1069 5.92667 20.3269 6.52 19.7136 7.24C19.1003 7.94667 18.6469 8.72667 18.3536 9.58C18.0736 10.4333 17.9336 11.24 17.9336 12ZM19.8936 12C19.8936 11.0667 20.0336 10.2133 20.3136 9.44C20.6069 8.65333 21.0003 7.98 21.4936 7.42C22.0003 6.86 22.5936 6.42667 23.2736 6.12C23.9536 5.8 24.6936 5.64 25.4936 5.64C26.2803 5.64 27.0203 5.8 27.7136 6.12C28.4203 6.42667 29.0336 6.86 29.5536 7.42C30.0869 7.98 30.5069 8.65333 30.8136 9.44C31.1203 10.2133 31.2736 11.0667 31.2736 12C31.2736 12.9333 31.1203 13.7933 30.8136 14.58C30.5069 15.3533 30.0869 16.02 29.5536 16.58C29.0336 17.14 28.4203 17.58 27.7136 17.9C27.0203 18.2067 26.2803 18.36 25.4936 18.36C24.6936 18.36 23.9536 18.2067 23.2736 17.9C22.5936 17.58 22.0003 17.14 21.4936 16.58C21.0003 16.02 20.6069 15.3533 20.3136 14.58C20.0336 13.7933 19.8936 12.9333 19.8936 12ZM40.8383 5V13.6C40.8383 14.1467 40.8916 14.7533 40.9983 15.42C41.1049 16.0733 41.3583 16.6867 41.7583 17.26C42.1583 17.82 42.7516 18.2933 43.5383 18.68C44.3249 19.0533 45.3983 19.24 46.7583 19.24C47.6116 19.24 48.3649 19.1067 49.0183 18.84C49.6849 18.5733 50.2383 18.2067 50.6783 17.74C51.1316 17.2733 51.4716 16.7333 51.6983 16.12C51.9249 15.4933 52.0383 14.8267 52.0383 14.12V5H51.1583V13.46C51.1583 13.7533 51.1516 14.0533 51.1383 14.36C51.1249 14.6533 51.0849 14.9533 51.0183 15.26C50.9516 15.5533 50.8449 15.8467 50.6983 16.14C50.5649 16.4333 50.3649 16.7267 50.0983 17.02C49.6183 17.54 49.0783 17.8933 48.4783 18.08C47.8783 18.2667 47.2516 18.36 46.5983 18.36C46.0383 18.36 45.5383 18.2733 45.0983 18.1C44.6716 17.9267 44.2649 17.6667 43.8783 17.32C43.5716 17.0533 43.3383 16.7867 43.1783 16.52C43.0183 16.2533 42.8983 15.9933 42.8183 15.74C42.7383 15.4733 42.6916 15.2067 42.6783 14.94C42.6649 14.6733 42.6583 14.4067 42.6583 14.14V5H40.8383ZM66.2128 19V6.1H71.5728V5H59.0328V6.1H64.3928V19H66.2128ZM79.3727 5V19H88.4127V17.9H81.1927V12.04H87.3927V11.12H81.1927V6.1H88.4127V5H79.3727ZM108.396 19V5H110.216V17.9H117.436V19H108.396ZM125.067 8.68H124.227L123.627 4.06H125.627L125.067 8.68ZM141.41 14.88L143.33 19H145.27L138.75 5H137.75L131.83 19H132.75L134.51 14.88H141.41ZM140.99 13.98H134.89L137.77 7.24H137.85L140.99 13.98ZM164.559 5V15.7H164.479L153.379 4.76H153.279V19H154.199V8.3H154.279L165.379 19.24H165.479V5H164.559ZM186.551 5V15.7H186.471L175.371 4.76H175.271V19H176.191V8.3H176.271L187.371 19.24H187.471V5H186.551ZM197.263 5V19H206.303V17.9H199.083V12.04H205.283V11.12H199.083V6.1H206.303V5H197.263ZM200.603 0.759999H202.823L199.723 3.3H198.943L200.603 0.759999ZM214.295 5V19H223.335V17.9H216.115V12.04H222.315V11.12H216.115V6.1H223.335V5H214.295Z" fill="#F0F0F0"></path></svg>