<svg xmlns="http://www.w3.org/2000/svg" width="84" height="53" viewBox="0 0 84 53" fill="none"><path d="M10 31.6661V28.117H21.3696V31.6661H10Z" fill="#F0F0F0"></path><path d="M51.5341 18.8728C50.6124 17.3046 49.3881 16.0734 47.8611 15.1792C46.3479 14.2851 44.6559 13.838 42.7851 13.838C41.1893 13.838 39.7312 14.175 38.4106 14.8491C37.09 15.5231 35.9551 16.4311 35.0059 17.5728C34.0705 18.7008 33.3414 20.0146 32.8186 21.514C32.2959 22.9997 32.0345 24.5679 32.0345 26.2186C32.0345 28.172 32.3234 29.9053 32.9012 31.4185C33.4789 32.918 34.2287 34.1698 35.1503 35.174C36.0858 36.1644 37.1931 36.9967 38.4725 37.6707C39.7518 38.331 41.1893 38.6612 42.7851 38.6612C44.9586 38.6612 46.85 38.1385 48.4595 37.093C50.069 36.0338 51.4446 34.3005 52.5864 31.8931L56.2181 33.6058C55.6953 35.0914 54.808 36.529 53.5562 37.9184C52.3044 39.294 50.7568 40.4082 48.9135 41.2611C47.0839 42.1003 45.0548 42.5198 42.8263 42.5198C40.6941 42.5198 38.7338 42.1209 36.9455 41.323C35.1572 40.5114 33.5615 39.3628 32.1583 37.8771C30.769 36.3914 29.7028 34.6306 28.96 32.5947C28.2309 30.5588 27.8664 28.4334 27.8664 26.2186C27.8664 23.9901 28.2309 21.8854 28.96 19.9045C29.7028 17.9236 30.7346 16.2041 32.0552 14.7459C33.3895 13.274 34.9715 12.1185 36.8011 11.2793C38.6444 10.4264 40.6391 10 42.7851 10C44.6972 10 46.3479 10.2751 47.7373 10.8254C49.1267 11.3619 50.3029 12.0084 51.2658 12.765C52.2425 13.5079 53.0816 14.3195 53.7832 15.1999H55.9705V18.8728H51.5341Z" fill="#F0F0F0"></path><path d="M62.5704 31.6661V28.117H73.94V31.6661H62.5704Z" fill="#F0F0F0"></path></svg>