<svg xmlns="http://www.w3.org/2000/svg" width="162" height="66" viewBox="0 0 162 66" fill="none"><path d="M88.9525 38.5294C93.1842 35.9623 96.4614 32.1074 98.2934 27.5422C99.0286 25.6902 99.52 23.6904 99.2762 21.7061C99.0325 19.7219 97.9474 17.7882 96.1665 16.8623C94.1615 15.8234 91.3467 16.018 90.1044 14.1388C89.1608 12.707 89.6759 10.8317 89.7112 9.12371C89.7229 7.57303 89.3162 6.04736 88.5332 4.70412C87.7502 3.36089 86.6193 2.24874 85.257 1.48242H77.0837C75.7174 2.25099 74.5837 3.36745 73.8005 4.7159C73.0173 6.06435 72.6129 7.59566 72.6295 9.15094C72.6649 10.8589 73.1799 12.7343 72.2363 14.166C70.994 16.0374 68.1792 15.8429 66.1742 16.8895C64.3933 17.8155 63.3121 19.7608 63.0645 21.7334C62.8168 23.706 63.3121 25.7058 64.0473 27.5694C65.8793 32.1346 69.1566 35.9895 73.3882 38.5566L88.9525 38.5294Z" fill="#212121" stroke="#F0F0F0" stroke-miterlimit="10"></path><path d="M85.7156 38.5566C88.2521 36.022 90.2854 32.0973 91.3803 27.5613C91.8793 25.6506 92.0786 23.6838 91.9722 21.721C91.8242 19.747 91.169 17.8002 90.091 16.8736C88.8735 15.834 87.1699 16.0287 86.4174 14.1481C85.8425 12.7153 86.1553 10.8386 86.1764 9.12932C86.2145 6.03786 85.1365 2.97364 83.4793 1.48242H78.5206C76.8635 2.97364 75.7855 6.03786 75.8236 9.12932C75.8447 10.8386 76.1575 12.7153 75.5826 14.1481C74.8301 16.0209 73.1265 15.8262 71.909 16.8736C70.831 17.8002 70.1758 19.747 70.0278 21.721C69.9214 23.6838 70.1207 25.6506 70.6197 27.5613C71.7146 32.0973 73.7352 36.022 76.2844 38.5566H85.7156Z" fill="#212121" stroke="#F0F0F0" stroke-miterlimit="10"></path><path d="M83.1491 38.5566C84.3063 36.0181 85.2223 32.0973 85.7199 27.5613C85.9458 25.6238 86.0353 23.6719 85.9875 21.721C85.9197 19.747 85.6106 17.8002 85.1318 16.8736C84.5815 15.834 83.805 16.0287 83.4657 14.1481C83.2056 12.7153 83.3451 10.8386 83.3564 9.12932C83.3564 6.03786 82.8852 2.97364 82.1313 1.48242H79.8696C79.1156 2.97364 78.6256 6.03786 78.6444 9.12932C78.6444 10.8386 78.7952 12.7153 78.5351 14.1481C78.1921 16.0209 77.4043 15.8262 76.869 16.8736C76.3789 17.8002 76.0811 19.747 76.0133 21.721C75.9636 23.6719 76.0531 25.624 76.2809 27.5613C76.7785 32.0973 77.6945 36.0181 78.8518 38.5566H83.1491Z" fill="#212121" stroke="#F0F0F0" stroke-miterlimit="10"></path><path d="M0.458008 65.9984V53.6504H2.47401V64.2524H8.63001V65.9984H0.458008Z" fill="#F0F0F0"></path><path d="M19.3896 65.9984V53.6504H28.9656V55.3784H21.4056V58.8164H28.1736V60.5444H21.4056V64.2704H29.0736V65.9984H19.3896Z" fill="#F0F0F0"></path><path d="M53.21 65.9984V53.6504H59.366C60.242 53.6504 60.968 53.8124 61.544 54.1364C62.12 54.4604 62.552 54.9104 62.84 55.4864C63.14 56.0504 63.29 56.7224 63.29 57.5024C63.29 58.2824 63.134 58.9724 62.822 59.5724C62.51 60.1604 62.054 60.6164 61.454 60.9404C60.866 61.2644 60.146 61.4264 59.294 61.4264H55.226V65.9984H53.21ZM55.226 59.6984H59.204C59.84 59.6984 60.338 59.5064 60.698 59.1224C61.07 58.7384 61.256 58.2044 61.256 57.5204C61.256 57.0644 61.178 56.6804 61.022 56.3684C60.866 56.0444 60.638 55.7984 60.338 55.6304C60.038 55.4624 59.66 55.3784 59.204 55.3784H55.226V59.6984Z" fill="#F0F0F0"></path><path d="M71.9693 65.9984L76.8113 53.6504H79.3853L84.2453 65.9984H82.0853L80.9873 63.1364H75.1373L74.0393 65.9984H71.9693ZM75.7853 61.4264H80.3213L78.9353 57.8084C78.8993 57.7004 78.8453 57.5504 78.7733 57.3584C78.7013 57.1664 78.6233 56.9564 78.5393 56.7284C78.4673 56.5004 78.3893 56.2724 78.3053 56.0444C78.2333 55.8044 78.1673 55.5884 78.1073 55.3964H77.9993C77.9273 55.6244 77.8373 55.8944 77.7293 56.2064C77.6213 56.5184 77.5133 56.8184 77.4053 57.1064C77.3093 57.3944 77.2253 57.6284 77.1533 57.8084L75.7853 61.4264Z" fill="#F0F0F0"></path><path d="M94.835 65.9984V53.6504H100.991C101.867 53.6504 102.593 53.8124 103.169 54.1364C103.745 54.4604 104.177 54.9104 104.465 55.4864C104.765 56.0504 104.915 56.7224 104.915 57.5024C104.915 58.2824 104.759 58.9724 104.447 59.5724C104.135 60.1604 103.679 60.6164 103.079 60.9404C102.491 61.2644 101.771 61.4264 100.919 61.4264H96.851V65.9984H94.835ZM96.851 59.6984H100.829C101.465 59.6984 101.963 59.5064 102.323 59.1224C102.695 58.7384 102.881 58.2044 102.881 57.5204C102.881 57.0644 102.803 56.6804 102.647 56.3684C102.491 56.0444 102.263 55.7984 101.963 55.6304C101.663 55.4624 101.285 55.3784 100.829 55.3784H96.851V59.6984Z" fill="#F0F0F0"></path><path d="M115.841 65.9984V53.6504H117.857V65.9984H115.841Z" fill="#F0F0F0"></path><path d="M129.78 65.9984V53.6504H139.356V55.3784H131.796V58.8164H138.564V60.5444H131.796V64.2704H139.464V65.9984H129.78Z" fill="#F0F0F0"></path><path d="M150.909 65.9984V53.6504H157.407C158.283 53.6504 159.009 53.8064 159.585 54.1184C160.161 54.4304 160.593 54.8684 160.881 55.4324C161.169 55.9844 161.313 56.6324 161.313 57.3764C161.313 58.2044 161.127 58.9244 160.755 59.5364C160.383 60.1484 159.855 60.5984 159.171 60.8864L161.745 65.9984H159.549L157.209 61.2284H152.925V65.9984H150.909ZM152.925 59.5364H157.245C157.893 59.5364 158.391 59.3444 158.739 58.9604C159.099 58.5764 159.279 58.0424 159.279 57.3584C159.279 56.9384 159.201 56.5844 159.045 56.2964C158.889 55.9964 158.661 55.7684 158.361 55.6124C158.061 55.4564 157.689 55.3784 157.245 55.3784H152.925V59.5364Z" fill="#F0F0F0"></path></svg>