<svg xmlns="http://www.w3.org/2000/svg" width="208" height="97" viewBox="0 0 208 97" fill="none"><g opacity="0.7"><path d="M5.1083 43.0453L10.5643 58.4453H11.8843L16.0863 46.4113H16.1963L20.2663 58.4453H21.5643L27.0203 43.0453H26.0083L21.4543 55.8933H21.3663L17.0763 43.0453H16.1303L11.7523 55.8273H11.6643L7.1323 43.0453H5.1083ZM38.2096 50.7893H47.4276V58.4453H49.4296V43.0453H47.4276V49.7773H38.2096V43.0453H36.2076V58.4453H38.2096V50.7893ZM61.4804 43.0453V58.4453H63.4824V43.0453H61.4804ZM81.2381 58.4453V44.2553H87.1341V43.0453H73.3401V44.2553H79.2361V58.4453H81.2381ZM96.1087 43.0453V58.4453H106.053V57.2353H98.1107V50.7893H104.931V49.7773H98.1107V44.2553H106.053V43.0453H96.1087ZM128.824 58.4453H134.346C135.329 58.4453 136.157 58.3206 136.832 58.0713C137.507 57.8073 138.049 57.47 138.46 57.0593C138.871 56.6486 139.164 56.1866 139.34 55.6733C139.531 55.1453 139.626 54.6173 139.626 54.0893C139.626 53.2533 139.443 52.586 139.076 52.0873C138.724 51.5886 138.299 51.2073 137.8 50.9433C137.301 50.6793 136.788 50.5033 136.26 50.4153C135.732 50.3273 135.307 50.276 134.984 50.2613V50.1733C135.497 50.1733 135.981 50.078 136.436 49.8873C136.891 49.682 137.287 49.4253 137.624 49.1173C137.976 48.7946 138.255 48.428 138.46 48.0173C138.665 47.592 138.768 47.1446 138.768 46.6753C138.768 46.2646 138.68 45.8466 138.504 45.4213C138.328 44.996 138.057 44.6073 137.69 44.2553C137.338 43.9033 136.876 43.6173 136.304 43.3973C135.747 43.1626 135.087 43.0453 134.324 43.0453H128.824V58.4453ZM130.826 57.4773V50.7453H133.246C133.965 50.7453 134.588 50.8406 135.116 51.0313C135.644 51.222 136.077 51.4786 136.414 51.8013C136.766 52.124 137.023 52.498 137.184 52.9233C137.36 53.3486 137.448 53.796 137.448 54.2653C137.448 54.7786 137.353 55.2333 137.162 55.6293C136.986 56.0253 136.744 56.3626 136.436 56.6413C136.128 56.92 135.761 57.1326 135.336 57.2793C134.925 57.4113 134.485 57.4773 134.016 57.4773H130.826ZM130.826 49.7773V44.0133H133.51C134.082 44.0133 134.566 44.094 134.962 44.2553C135.373 44.4166 135.703 44.6293 135.952 44.8933C136.216 45.1573 136.407 45.458 136.524 45.7953C136.641 46.1326 136.7 46.47 136.7 46.8073C136.7 47.2326 136.612 47.6286 136.436 47.9953C136.275 48.362 136.04 48.6773 135.732 48.9413C135.439 49.2053 135.094 49.4106 134.698 49.5573C134.317 49.704 133.906 49.7773 133.466 49.7773H130.826ZM149.264 43.0453V58.4453H159.208V57.2353H151.266V50.7893H158.086V49.7773H151.266V44.2553H159.208V43.0453H149.264ZM176.951 53.9133L179.063 58.4453H181.197L174.025 43.0453H172.925L166.413 58.4453H167.425L169.361 53.9133H176.951ZM176.489 52.9233H169.779L172.947 45.5093H173.035L176.489 52.9233ZM190.401 43.0453V58.4453H192.403V51.6473H193.371C193.781 51.6473 194.119 51.684 194.383 51.7573C194.661 51.8306 194.911 51.9553 195.131 52.1313C195.351 52.3073 195.556 52.5346 195.747 52.8133C195.937 53.092 196.165 53.4366 196.429 53.8473L198.167 56.4213C198.387 56.7586 198.599 57.0666 198.805 57.3453C199.025 57.624 199.259 57.866 199.509 58.0713C199.758 58.262 200.037 58.416 200.345 58.5333C200.667 58.6506 201.049 58.7093 201.489 58.7093C201.811 58.7093 202.075 58.6946 202.281 58.6653C202.486 58.636 202.691 58.5626 202.897 58.4453V57.6313C202.823 57.646 202.75 57.6606 202.677 57.6753C202.603 57.6753 202.53 57.6753 202.457 57.6753C202.149 57.6753 201.877 57.6313 201.643 57.5433C201.408 57.4553 201.188 57.3306 200.983 57.1693C200.777 56.9933 200.579 56.788 200.389 56.5533C200.198 56.304 200 56.0253 199.795 55.7173C199.179 54.8226 198.702 54.1113 198.365 53.5833C198.027 53.0406 197.756 52.6226 197.551 52.3293C197.36 52.036 197.199 51.8233 197.067 51.6913C196.949 51.5593 196.803 51.4493 196.627 51.3613L196.407 51.2513V51.1633C197.111 51.1193 197.712 50.9653 198.211 50.7013C198.724 50.4373 199.142 50.1073 199.465 49.7113C199.787 49.3153 200.022 48.89 200.169 48.4353C200.315 47.966 200.389 47.5113 200.389 47.0713C200.389 46.6753 200.308 46.2426 200.147 45.7733C200 45.304 199.736 44.8713 199.355 44.4753C198.988 44.0646 198.482 43.7273 197.837 43.4633C197.191 43.1846 196.377 43.0453 195.395 43.0453H190.401ZM192.403 44.0133H194.625C195.182 44.0133 195.681 44.094 196.121 44.2553C196.575 44.4166 196.964 44.644 197.287 44.9373C197.609 45.216 197.851 45.5533 198.013 45.9493C198.189 46.3453 198.277 46.778 198.277 47.2473C198.277 47.6433 198.196 48.0466 198.035 48.4573C197.888 48.8533 197.661 49.22 197.353 49.5573C197.045 49.88 196.663 50.144 196.209 50.3493C195.769 50.5546 195.255 50.6573 194.669 50.6573H192.403V44.0133Z" fill="#F0F0F0"></path><path d="M46.2017 85.19C46.2203 85.5913 46.323 85.9553 46.5097 86.282C46.7057 86.6086 46.967 86.8886 47.2937 87.122C47.6297 87.346 48.0217 87.5233 48.4697 87.654C48.9177 87.7753 49.4077 87.836 49.9397 87.836C50.481 87.836 50.9663 87.7706 51.3957 87.64C51.8343 87.5093 52.2077 87.3226 52.5157 87.08C52.8237 86.8373 53.0617 86.5433 53.2297 86.198C53.3977 85.8526 53.4817 85.47 53.4817 85.05C53.4817 84.4713 53.337 84 53.0477 83.636C52.7583 83.2626 52.3943 82.9546 51.9557 82.712C51.5263 82.46 51.055 82.25 50.5417 82.082C50.0377 81.914 49.5663 81.7366 49.1277 81.55C48.6983 81.3633 48.339 81.1486 48.0497 80.906C47.7603 80.6633 47.6157 80.3413 47.6157 79.94C47.6157 79.716 47.6623 79.506 47.7557 79.31C47.8583 79.114 48.003 78.946 48.1897 78.806C48.3857 78.6566 48.6237 78.54 48.9037 78.456C49.1837 78.3626 49.5057 78.316 49.8697 78.316C50.4763 78.316 50.9897 78.4466 51.4097 78.708C51.839 78.96 52.091 79.3613 52.1657 79.912H53.1177C53.0617 79.5666 52.9357 79.2586 52.7397 78.988C52.5437 78.708 52.2963 78.4746 51.9977 78.288C51.699 78.092 51.3583 77.9473 50.9757 77.854C50.6023 77.7513 50.2103 77.7 49.7997 77.7C49.3703 77.7 48.9597 77.756 48.5677 77.868C48.185 77.98 47.8443 78.1433 47.5457 78.358C47.2563 78.5726 47.023 78.8433 46.8457 79.17C46.6777 79.4966 46.5937 79.87 46.5937 80.29C46.5937 80.8406 46.7337 81.284 47.0137 81.62C47.2937 81.956 47.6437 82.236 48.0637 82.46C48.493 82.684 48.955 82.8753 49.4497 83.034C49.9443 83.1926 50.4017 83.3746 50.8217 83.58C51.251 83.776 51.6057 84.0186 51.8857 84.308C52.1657 84.5973 52.3057 84.9846 52.3057 85.47C52.3057 86.0766 52.0817 86.52 51.6337 86.8C51.195 87.08 50.607 87.22 49.8697 87.22C49.2817 87.22 48.8103 87.1453 48.4557 86.996C48.101 86.8373 47.8303 86.6506 47.6437 86.436C47.457 86.2213 47.331 86.002 47.2657 85.778C47.2003 85.5446 47.163 85.3486 47.1537 85.19H46.2017ZM59.2554 87.668H60.5294V84.224L62.1114 82.53L65.8354 87.668H67.2914L62.9234 81.662L66.4794 77.868H65.7794L60.5294 83.384V77.868H59.2554V87.668ZM73.088 77.868V87.668H74.362V77.868H73.088ZM89.4618 77.868V87.668H90.7358V83.342H91.3518C91.6131 83.342 91.8278 83.3653 91.9958 83.412C92.1731 83.4586 92.3318 83.538 92.4718 83.65C92.6118 83.762 92.7425 83.9066 92.8638 84.084C92.9851 84.2613 93.1298 84.4806 93.2978 84.742L94.4038 86.38C94.5438 86.5946 94.6791 86.7906 94.8098 86.968C94.9498 87.1453 95.0991 87.2993 95.2578 87.43C95.4165 87.5513 95.5938 87.6493 95.7898 87.724C95.9951 87.7986 96.2378 87.836 96.5178 87.836C96.7231 87.836 96.8911 87.8266 97.0218 87.808C97.1525 87.7893 97.2831 87.7426 97.4138 87.668V87.15C97.3671 87.1593 97.3205 87.1686 97.2738 87.178C97.2271 87.178 97.1805 87.178 97.1338 87.178C96.9378 87.178 96.7651 87.15 96.6158 87.094C96.4665 87.038 96.3265 86.9586 96.1958 86.856C96.0651 86.744 95.9391 86.6133 95.8178 86.464C95.6965 86.3053 95.5705 86.128 95.4398 85.932C95.0478 85.3626 94.7445 84.91 94.5298 84.574C94.3151 84.2286 94.1425 83.9626 94.0118 83.776C93.8905 83.5893 93.7878 83.454 93.7038 83.37C93.6291 83.286 93.5358 83.216 93.4238 83.16L93.2838 83.09V83.034C93.7318 83.006 94.1145 82.908 94.4318 82.74C94.7585 82.572 95.0245 82.362 95.2298 82.11C95.4351 81.858 95.5845 81.5873 95.6778 81.298C95.7711 80.9993 95.8178 80.71 95.8178 80.43C95.8178 80.178 95.7665 79.9026 95.6638 79.604C95.5705 79.3053 95.4025 79.03 95.1598 78.778C94.9265 78.5166 94.6045 78.302 94.1938 78.134C93.7831 77.9566 93.2651 77.868 92.6398 77.868H89.4618ZM90.7358 78.484H92.1498C92.5045 78.484 92.8218 78.5353 93.1018 78.638C93.3911 78.7406 93.6385 78.8853 93.8438 79.072C94.0491 79.2493 94.2031 79.464 94.3058 79.716C94.4178 79.968 94.4738 80.2433 94.4738 80.542C94.4738 80.794 94.4225 81.0506 94.3198 81.312C94.2265 81.564 94.0818 81.7973 93.8858 82.012C93.6898 82.2173 93.4471 82.3853 93.1578 82.516C92.8778 82.6466 92.5511 82.712 92.1778 82.712H90.7358V78.484ZM102.652 77.868V87.668H108.98V86.898H103.926V82.796H108.266V82.152H103.926V78.638H108.98V77.868H102.652ZM113.054 85.19C113.073 85.5913 113.175 85.9553 113.362 86.282C113.558 86.6086 113.819 86.8886 114.146 87.122C114.482 87.346 114.874 87.5233 115.322 87.654C115.77 87.7753 116.26 87.836 116.792 87.836C117.333 87.836 117.819 87.7706 118.248 87.64C118.687 87.5093 119.06 87.3226 119.368 87.08C119.676 86.8373 119.914 86.5433 120.082 86.198C120.25 85.8526 120.334 85.47 120.334 85.05C120.334 84.4713 120.189 84 119.9 83.636C119.611 83.2626 119.247 82.9546 118.808 82.712C118.379 82.46 117.907 82.25 117.394 82.082C116.89 81.914 116.419 81.7366 115.98 81.55C115.551 81.3633 115.191 81.1486 114.902 80.906C114.613 80.6633 114.468 80.3413 114.468 79.94C114.468 79.716 114.515 79.506 114.608 79.31C114.711 79.114 114.855 78.946 115.042 78.806C115.238 78.6566 115.476 78.54 115.756 78.456C116.036 78.3626 116.358 78.316 116.722 78.316C117.329 78.316 117.842 78.4466 118.262 78.708C118.691 78.96 118.943 79.3613 119.018 79.912H119.97C119.914 79.5666 119.788 79.2586 119.592 78.988C119.396 78.708 119.149 78.4746 118.85 78.288C118.551 78.092 118.211 77.9473 117.828 77.854C117.455 77.7513 117.063 77.7 116.652 77.7C116.223 77.7 115.812 77.756 115.42 77.868C115.037 77.98 114.697 78.1433 114.398 78.358C114.109 78.5726 113.875 78.8433 113.698 79.17C113.53 79.4966 113.446 79.87 113.446 80.29C113.446 80.8406 113.586 81.284 113.866 81.62C114.146 81.956 114.496 82.236 114.916 82.46C115.345 82.684 115.807 82.8753 116.302 83.034C116.797 83.1926 117.254 83.3746 117.674 83.58C118.103 83.776 118.458 84.0186 118.738 84.308C119.018 84.5973 119.158 84.9846 119.158 85.47C119.158 86.0766 118.934 86.52 118.486 86.8C118.047 87.08 117.459 87.22 116.722 87.22C116.134 87.22 115.663 87.1453 115.308 86.996C114.953 86.8373 114.683 86.6506 114.496 86.436C114.309 86.2213 114.183 86.002 114.118 85.778C114.053 85.5446 114.015 85.3486 114.006 85.19H113.054ZM125.128 82.768C125.128 83.2906 125.226 83.8506 125.422 84.448C125.627 85.036 125.944 85.582 126.374 86.086C126.803 86.59 127.349 87.01 128.012 87.346C128.674 87.6726 129.468 87.836 130.392 87.836C131.017 87.836 131.582 87.7613 132.086 87.612C132.599 87.4533 133.056 87.2433 133.458 86.982C133.868 86.7206 134.223 86.422 134.522 86.086C134.82 85.7406 135.063 85.3813 135.25 85.008C135.446 84.6253 135.59 84.2426 135.684 83.86C135.786 83.4773 135.838 83.1133 135.838 82.768C135.838 82.2453 135.73 81.69 135.516 81.102C135.301 80.5046 134.97 79.954 134.522 79.45C134.074 78.946 133.504 78.5306 132.814 78.204C132.132 77.868 131.325 77.7 130.392 77.7C129.468 77.7 128.674 77.8633 128.012 78.19C127.349 78.5166 126.803 78.932 126.374 79.436C125.944 79.9306 125.627 80.4766 125.422 81.074C125.226 81.6713 125.128 82.236 125.128 82.768ZM126.5 82.768C126.5 82.1146 126.598 81.5173 126.794 80.976C126.999 80.4253 127.274 79.954 127.62 79.562C127.974 79.17 128.39 78.8666 128.866 78.652C129.342 78.428 129.86 78.316 130.42 78.316C130.97 78.316 131.488 78.428 131.974 78.652C132.468 78.8666 132.898 79.17 133.262 79.562C133.635 79.954 133.929 80.4253 134.144 80.976C134.358 81.5173 134.466 82.1146 134.466 82.768C134.466 83.4213 134.358 84.0233 134.144 84.574C133.929 85.1153 133.635 85.582 133.262 85.974C132.898 86.366 132.468 86.674 131.974 86.898C131.488 87.1126 130.97 87.22 130.42 87.22C129.86 87.22 129.342 87.1126 128.866 86.898C128.39 86.674 127.974 86.366 127.62 85.974C127.274 85.582 126.999 85.1153 126.794 84.574C126.598 84.0233 126.5 83.4213 126.5 82.768ZM141.363 77.868V87.668H142.637V83.342H143.253C143.514 83.342 143.729 83.3653 143.897 83.412C144.074 83.4586 144.233 83.538 144.373 83.65C144.513 83.762 144.643 83.9066 144.765 84.084C144.886 84.2613 145.031 84.4806 145.199 84.742L146.305 86.38C146.445 86.5946 146.58 86.7906 146.711 86.968C146.851 87.1453 147 87.2993 147.159 87.43C147.317 87.5513 147.495 87.6493 147.691 87.724C147.896 87.7986 148.139 87.836 148.419 87.836C148.624 87.836 148.792 87.8266 148.923 87.808C149.053 87.7893 149.184 87.7426 149.315 87.668V87.15C149.268 87.1593 149.221 87.1686 149.175 87.178C149.128 87.178 149.081 87.178 149.035 87.178C148.839 87.178 148.666 87.15 148.517 87.094C148.367 87.038 148.227 86.9586 148.097 86.856C147.966 86.744 147.84 86.6133 147.719 86.464C147.597 86.3053 147.471 86.128 147.341 85.932C146.949 85.3626 146.645 84.91 146.431 84.574C146.216 84.2286 146.043 83.9626 145.913 83.776C145.791 83.5893 145.689 83.454 145.605 83.37C145.53 83.286 145.437 83.216 145.325 83.16L145.185 83.09V83.034C145.633 83.006 146.015 82.908 146.333 82.74C146.659 82.572 146.925 82.362 147.131 82.11C147.336 81.858 147.485 81.5873 147.579 81.298C147.672 80.9993 147.719 80.71 147.719 80.43C147.719 80.178 147.667 79.9026 147.565 79.604C147.471 79.3053 147.303 79.03 147.061 78.778C146.827 78.5166 146.505 78.302 146.095 78.134C145.684 77.9566 145.166 77.868 144.541 77.868H141.363ZM142.637 78.484H144.051C144.405 78.484 144.723 78.5353 145.003 78.638C145.292 78.7406 145.539 78.8853 145.745 79.072C145.95 79.2493 146.104 79.464 146.207 79.716C146.319 79.968 146.375 80.2433 146.375 80.542C146.375 80.794 146.323 81.0506 146.221 81.312C146.127 81.564 145.983 81.7973 145.787 82.012C145.591 82.2173 145.348 82.3853 145.059 82.516C144.779 82.6466 144.452 82.712 144.079 82.712H142.637V78.484ZM158.179 87.668V78.638H161.931V77.868H153.153V78.638H156.905V87.668H158.179Z" fill="#F0F0F0"></path><path d="M85.346 26.0703V17.0403H89.098V16.2703H80.32V17.0403H84.072V26.0703H85.346ZM95.4737 21.1983H101.34V26.0703H102.614V16.2703H101.34V20.5543H95.4737V16.2703H94.1997V26.0703H95.4737V21.1983ZM109.113 16.2703V26.0703H115.441V25.3003H110.387V21.1983H114.727V20.5543H110.387V17.0403H115.441V16.2703H109.113Z" fill="#F0F0F0"></path></g></svg>