<svg xmlns="http://www.w3.org/2000/svg" width="206" height="17" viewBox="0 0 206 17" fill="none"><path d="M0.0942383 0.303711H1.59616V15.9999H0.0942383V0.303711Z" fill="#F0F0F0"></path><path d="M10.5829 4.87294H12.0848V15.9999H10.5829V4.87294ZM11.3444 2.44025C11.0342 2.44025 10.7733 2.33448 10.5617 2.12294C10.3502 1.9114 10.2444 1.65756 10.2444 1.3614C10.2444 1.07935 10.3502 0.832557 10.5617 0.621018C10.7733 0.40948 11.0342 0.303711 11.3444 0.303711C11.6547 0.303711 11.9156 0.40948 12.1271 0.621018C12.3387 0.818454 12.4444 1.0582 12.4444 1.34025C12.4444 1.65051 12.3387 1.9114 12.1271 2.12294C11.9156 2.33448 11.6547 2.44025 11.3444 2.44025Z" fill="#F0F0F0"></path><path d="M26.9312 15.3229C26.6491 15.5768 26.2966 15.7742 25.8735 15.9153C25.4645 16.0422 25.0344 16.1056 24.5831 16.1056C23.5395 16.1056 22.7357 15.8236 22.1716 15.2595C21.6075 14.6954 21.3254 13.8986 21.3254 12.8691V6.14217H19.3369V4.87294H21.3254V2.44025H22.8273V4.87294H26.2119V6.14217H22.8273V12.7845C22.8273 13.4473 22.9895 13.955 23.3139 14.3076C23.6523 14.646 24.1318 14.8153 24.7523 14.8153C25.0626 14.8153 25.3587 14.7659 25.6408 14.6672C25.9369 14.5685 26.1908 14.4274 26.4023 14.2441L26.9312 15.3229Z" fill="#F0F0F0"></path><path d="M40.0434 15.3229C39.7613 15.5768 39.4088 15.7742 38.9857 15.9153C38.5767 16.0422 38.1466 16.1056 37.6953 16.1056C36.6517 16.1056 35.8479 15.8236 35.2838 15.2595C34.7197 14.6954 34.4376 13.8986 34.4376 12.8691V6.14217H32.4492V4.87294H34.4376V2.44025H35.9396V4.87294H39.3242V6.14217H35.9396V12.7845C35.9396 13.4473 36.1017 13.955 36.4261 14.3076C36.7646 14.646 37.244 14.8153 37.8646 14.8153C38.1748 14.8153 38.471 14.7659 38.753 14.6672C39.0492 14.5685 39.303 14.4274 39.5146 14.2441L40.0434 15.3229Z" fill="#F0F0F0"></path><path d="M47.5852 0.303711H49.0871V15.9999H47.5852V0.303711Z" fill="#F0F0F0"></path><path d="M67.7623 10.9018H58.4547C58.5393 12.0582 58.9835 12.996 59.7873 13.7153C60.5912 14.4204 61.6066 14.7729 62.8335 14.7729C63.5245 14.7729 64.1591 14.6531 64.7373 14.4133C65.3155 14.1595 65.8162 13.7928 66.2393 13.3133L67.0854 14.2864C66.5918 14.8787 65.9713 15.33 65.2239 15.6403C64.4906 15.9505 63.6797 16.1056 62.7912 16.1056C61.6489 16.1056 60.6335 15.8659 59.745 15.3864C58.8707 14.8928 58.1867 14.2159 57.6931 13.3556C57.1995 12.4954 56.9527 11.5223 56.9527 10.4364C56.9527 9.35051 57.1854 8.37743 57.6508 7.51717C58.1303 6.65692 58.779 5.98705 59.597 5.50756C60.429 5.02807 61.3598 4.78833 62.3893 4.78833C63.4188 4.78833 64.3425 5.02807 65.1604 5.50756C65.9784 5.98705 66.62 6.65692 67.0854 7.51717C67.5508 8.36333 67.7835 9.3364 67.7835 10.4364L67.7623 10.9018ZM62.3893 6.07871C61.3175 6.07871 60.4149 6.42422 59.6816 7.11525C58.9623 7.79217 58.5534 8.68063 58.4547 9.78063H66.345C66.2463 8.68063 65.8303 7.79217 65.097 7.11525C64.3777 6.42422 63.4752 6.07871 62.3893 6.07871Z" fill="#F0F0F0"></path><path d="M87.4308 7.05179C87.7833 6.30435 88.3051 5.74025 88.9961 5.35948C89.7013 4.97871 90.5686 4.78833 91.5981 4.78833V6.24794L91.2385 6.22679C90.0679 6.22679 89.1513 6.5864 88.4885 7.30563C87.8256 8.02487 87.4942 9.0332 87.4942 10.3306V15.9999H85.9923V4.87294H87.4308V7.05179Z" fill="#F0F0F0"></path><path d="M102.997 4.78833C104.449 4.78833 105.564 5.15499 106.339 5.88833C107.115 6.60756 107.503 7.67935 107.503 9.10371V15.9999H106.064V14.2653C105.726 14.8435 105.225 15.2947 104.562 15.6191C103.914 15.9435 103.138 16.1056 102.235 16.1056C100.994 16.1056 100.007 15.8095 99.2738 15.2172C98.5404 14.6249 98.1738 13.8422 98.1738 12.8691C98.1738 11.9242 98.5122 11.1627 99.1891 10.5845C99.8802 10.0063 100.973 9.71717 102.468 9.71717H106.001V9.04025C106.001 8.08128 105.733 7.35499 105.197 6.8614C104.661 6.35371 103.878 6.09987 102.849 6.09987C102.144 6.09987 101.467 6.21974 100.818 6.45948C100.169 6.68512 99.6122 7.00243 99.1468 7.4114L98.4699 6.29025C99.034 5.81076 99.7109 5.4441 100.501 5.19025C101.29 4.9223 102.122 4.78833 102.997 4.78833ZM102.468 14.921C103.314 14.921 104.04 14.7306 104.647 14.3499C105.253 13.955 105.705 13.3909 106.001 12.6576V10.8383H102.51C100.606 10.8383 99.6545 11.5011 99.6545 12.8268C99.6545 13.4755 99.9013 13.9903 100.395 14.371C100.889 14.7377 101.58 14.921 102.468 14.921Z" fill="#F0F0F0"></path><path d="M116.39 4.87294H117.892V15.9999H116.39V4.87294ZM117.151 2.44025C116.841 2.44025 116.58 2.33448 116.369 2.12294C116.157 1.9114 116.051 1.65756 116.051 1.3614C116.051 1.07935 116.157 0.832557 116.369 0.621018C116.58 0.40948 116.841 0.303711 117.151 0.303711C117.461 0.303711 117.722 0.40948 117.934 0.621018C118.145 0.818454 118.251 1.0582 118.251 1.34025C118.251 1.65051 118.145 1.9114 117.934 2.12294C117.722 2.33448 117.461 2.44025 117.151 2.44025Z" fill="#F0F0F0"></path><path d="M132.548 4.78833C133.944 4.78833 135.051 5.1973 135.869 6.01525C136.701 6.8191 137.117 7.99666 137.117 9.54794V15.9999H135.615V9.69602C135.615 8.53961 135.326 7.6582 134.748 7.05179C134.169 6.44538 133.344 6.14217 132.273 6.14217C131.074 6.14217 130.122 6.50179 129.417 7.22102C128.726 7.92615 128.38 8.90628 128.38 10.1614V15.9999H126.878V4.87294H128.317V6.92487C128.726 6.24794 129.29 5.72615 130.009 5.35948C130.742 4.97871 131.589 4.78833 132.548 4.78833Z" fill="#F0F0F0"></path><path d="M156.197 0.303711V15.9999H154.759V13.7999C154.307 14.5473 153.708 15.1185 152.961 15.5133C152.227 15.9082 151.395 16.1056 150.465 16.1056C149.421 16.1056 148.476 15.8659 147.63 15.3864C146.784 14.9069 146.121 14.237 145.641 13.3768C145.162 12.5165 144.922 11.5364 144.922 10.4364C144.922 9.3364 145.162 8.35628 145.641 7.49602C146.121 6.63576 146.784 5.97294 147.63 5.50756C148.476 5.02807 149.421 4.78833 150.465 4.78833C151.367 4.78833 152.178 4.97871 152.897 5.35948C153.631 5.72615 154.23 6.2691 154.695 6.98833V0.303711H156.197ZM150.591 14.7729C151.367 14.7729 152.065 14.5967 152.686 14.2441C153.32 13.8774 153.814 13.3627 154.166 12.6999C154.533 12.037 154.716 11.2826 154.716 10.4364C154.716 9.59025 154.533 8.83576 154.166 8.17294C153.814 7.51012 153.32 7.00243 152.686 6.64987C152.065 6.2832 151.367 6.09987 150.591 6.09987C149.802 6.09987 149.09 6.2832 148.455 6.64987C147.834 7.00243 147.341 7.51012 146.974 8.17294C146.622 8.83576 146.445 9.59025 146.445 10.4364C146.445 11.2826 146.622 12.037 146.974 12.6999C147.341 13.3627 147.834 13.8774 148.455 14.2441C149.09 14.5967 149.802 14.7729 150.591 14.7729Z" fill="#F0F0F0"></path><path d="M174.876 10.9018H165.569C165.653 12.0582 166.097 12.996 166.901 13.7153C167.705 14.4204 168.72 14.7729 169.947 14.7729C170.638 14.7729 171.273 14.6531 171.851 14.4133C172.429 14.1595 172.93 13.7928 173.353 13.3133L174.199 14.2864C173.706 14.8787 173.085 15.33 172.338 15.6403C171.604 15.9505 170.794 16.1056 169.905 16.1056C168.763 16.1056 167.747 15.8659 166.859 15.3864C165.985 14.8928 165.301 14.2159 164.807 13.3556C164.313 12.4954 164.067 11.5223 164.067 10.4364C164.067 9.35051 164.299 8.37743 164.765 7.51717C165.244 6.65692 165.893 5.98705 166.711 5.50756C167.543 5.02807 168.474 4.78833 169.503 4.78833C170.533 4.78833 171.456 5.02807 172.274 5.50756C173.092 5.98705 173.734 6.65692 174.199 7.51717C174.665 8.36333 174.897 9.3364 174.897 10.4364L174.876 10.9018ZM169.503 6.07871C168.431 6.07871 167.529 6.42422 166.795 7.11525C166.076 7.79217 165.667 8.68063 165.569 9.78063H173.459C173.36 8.68063 172.944 7.79217 172.211 7.11525C171.492 6.42422 170.589 6.07871 169.503 6.07871Z" fill="#F0F0F0"></path><path d="M192.451 10.9018H183.143C183.228 12.0582 183.672 12.996 184.476 13.7153C185.279 14.4204 186.295 14.7729 187.522 14.7729C188.213 14.7729 188.847 14.6531 189.426 14.4133C190.004 14.1595 190.504 13.7928 190.928 13.3133L191.774 14.2864C191.28 14.8787 190.66 15.33 189.912 15.6403C189.179 15.9505 188.368 16.1056 187.479 16.1056C186.337 16.1056 185.322 15.8659 184.433 15.3864C183.559 14.8928 182.875 14.2159 182.381 13.3556C181.888 12.4954 181.641 11.5223 181.641 10.4364C181.641 9.35051 181.874 8.37743 182.339 7.51717C182.819 6.65692 183.467 5.98705 184.285 5.50756C185.117 5.02807 186.048 4.78833 187.078 4.78833C188.107 4.78833 189.031 5.02807 189.849 5.50756C190.667 5.98705 191.308 6.65692 191.774 7.51717C192.239 8.36333 192.472 9.3364 192.472 10.4364L192.451 10.9018ZM187.078 6.07871C186.006 6.07871 185.103 6.42422 184.37 7.11525C183.651 7.79217 183.242 8.68063 183.143 9.78063H191.033C190.935 8.68063 190.519 7.79217 189.785 7.11525C189.066 6.42422 188.163 6.07871 187.078 6.07871Z" fill="#F0F0F0"></path><path d="M201.775 7.05179C202.128 6.30435 202.649 5.74025 203.34 5.35948C204.045 4.97871 204.913 4.78833 205.942 4.78833V6.24794L205.583 6.22679C204.412 6.22679 203.495 6.5864 202.833 7.30563C202.17 8.02487 201.838 9.0332 201.838 10.3306V15.9999H200.337V4.87294H201.775V7.05179Z" fill="#F0F0F0"></path></svg>