<svg xmlns="http://www.w3.org/2000/svg" width="251" height="40" viewBox="0 0 251 40" fill="none"><path d="M177.83 35.7441C178.084 35.2363 178.406 34.61 178.795 33.8652C179.201 33.1035 179.616 32.3418 180.039 31.5801C180.479 30.8184 180.902 30.099 181.309 29.4219C181.732 28.7448 182.087 28.2285 182.375 27.873C182.866 27.2806 183.374 26.8574 183.898 26.6035C184.423 26.3496 184.906 26.2227 185.346 26.2227C185.786 26.2227 186.158 26.3158 186.463 26.502C186.785 26.6882 187.047 26.9421 187.25 27.2637C187.453 27.5684 187.605 27.9323 187.707 28.3555C187.809 28.7617 187.859 29.2018 187.859 29.6758C187.859 29.9466 187.842 30.3021 187.809 30.7422C187.792 31.1823 187.766 31.6563 187.732 32.1641C187.715 32.6719 187.69 33.1966 187.656 33.7383C187.639 34.2799 187.622 34.7878 187.605 35.2617C187.859 34.7539 188.147 34.1953 188.469 33.5859C188.79 32.9596 189.112 32.3418 189.434 31.7324C189.772 31.123 190.094 30.556 190.398 30.0313C190.703 29.4896 190.982 29.0495 191.236 28.7109C191.964 27.7122 192.641 27.0436 193.268 26.7051C193.911 26.3665 194.478 26.1973 194.969 26.1973C195.544 26.1973 196.018 26.3073 196.391 26.5273C196.763 26.7305 197.051 27.0013 197.254 27.3398C197.474 27.6615 197.626 28.0254 197.711 28.4316C197.796 28.8379 197.838 29.2272 197.838 29.5996C197.838 30.1751 197.796 30.776 197.711 31.4023C197.626 32.0286 197.584 32.7734 197.584 33.6367C197.584 33.9922 197.601 34.3477 197.635 34.7031C197.669 35.0586 197.736 35.3717 197.838 35.6426C197.956 35.9134 198.134 36.1335 198.371 36.3027C198.608 36.472 198.93 36.5566 199.336 36.5566C199.776 36.5566 200.208 36.4466 200.631 36.2266C201.054 35.9896 201.46 35.6849 201.85 35.3125C202.239 34.9401 202.603 34.5169 202.941 34.043C203.297 33.569 203.618 33.0951 203.906 32.6211C204.194 32.1471 204.448 31.6986 204.668 31.2754C204.888 30.8353 205.066 30.4629 205.201 30.1582C205.286 29.972 205.404 29.8281 205.557 29.7266C205.709 29.625 205.878 29.5742 206.064 29.5742C206.352 29.5742 206.581 29.6842 206.75 29.9043C206.936 30.1074 207.029 30.3275 207.029 30.5645C207.029 30.6829 207.004 30.8014 206.953 30.9199C206.885 31.0553 206.75 31.3431 206.547 31.7832C206.344 32.2064 206.073 32.6973 205.734 33.2559C205.396 33.7975 204.998 34.373 204.541 34.9824C204.101 35.5918 203.61 36.1589 203.068 36.6836C202.527 37.1914 201.943 37.6146 201.316 37.9531C200.69 38.2747 200.03 38.4355 199.336 38.4355C198.591 38.4355 197.982 38.3001 197.508 38.0293C197.051 37.7754 196.678 37.4284 196.391 36.9883C196.12 36.5482 195.934 36.0404 195.832 35.4648C195.73 34.8893 195.68 34.2884 195.68 33.6621C195.68 32.8327 195.722 32.071 195.807 31.377C195.891 30.666 195.934 30.1159 195.934 29.7266C195.934 29.3034 195.891 28.9818 195.807 28.7617C195.739 28.5417 195.646 28.3893 195.527 28.3047C195.426 28.2031 195.324 28.1523 195.223 28.1523C195.121 28.1354 195.045 28.127 194.994 28.127C194.588 28.127 194.156 28.3555 193.699 28.8125C193.259 29.2526 192.802 29.8451 192.328 30.5898C191.854 31.3346 191.363 32.181 190.855 33.1289C190.365 34.0768 189.865 35.0417 189.357 36.0234C189.07 36.5651 188.824 37.0137 188.621 37.3691C188.435 37.7246 188.249 38.0039 188.062 38.207C187.893 38.4102 187.724 38.554 187.555 38.6387C187.385 38.7233 187.199 38.7656 186.996 38.7656C186.556 38.7656 186.217 38.6133 185.98 38.3086C185.76 38.0039 185.65 37.6061 185.65 37.1152C185.65 36.8613 185.659 36.5228 185.676 36.0996C185.693 35.6764 185.71 35.2109 185.727 34.7031C185.743 34.1953 185.769 33.6706 185.803 33.1289C185.837 32.5872 185.862 32.071 185.879 31.5801C185.896 31.0723 185.913 30.6237 185.93 30.2344C185.947 29.8451 185.955 29.5488 185.955 29.3457C185.955 28.9056 185.879 28.5924 185.727 28.4063C185.574 28.2031 185.396 28.1016 185.193 28.1016C185.007 28.1016 184.796 28.1693 184.559 28.3047C184.339 28.4401 184.076 28.7025 183.771 29.0918C183.535 29.3965 183.23 29.8451 182.857 30.4375C182.502 31.013 182.121 31.6563 181.715 32.3672C181.309 33.0781 180.902 33.806 180.496 34.5508C180.107 35.2956 179.768 35.9642 179.48 36.5566C179.125 37.2676 178.77 37.75 178.414 38.0039C178.059 38.2747 177.712 38.4102 177.373 38.4102C176.882 38.4102 176.518 38.2663 176.281 37.9785C176.044 37.6738 175.926 37.276 175.926 36.7852C175.926 36.7344 175.934 36.4297 175.951 35.8711C175.985 35.3125 176.019 34.6354 176.053 33.8398C176.087 33.0273 176.12 32.1641 176.154 31.25C176.205 30.3359 176.247 29.4811 176.281 28.6855C176.298 28.2624 176.281 27.873 176.23 27.5176C176.18 27.1621 176.112 26.9505 176.027 26.8828C175.892 26.9167 175.621 27.2298 175.215 27.8223C174.826 28.4147 174.326 29.4473 173.717 30.9199C173.632 31.1061 173.505 31.25 173.336 31.3516C173.167 31.4531 172.989 31.5039 172.803 31.5039C172.515 31.5039 172.286 31.4108 172.117 31.2246C171.948 31.0215 171.863 30.793 171.863 30.5391C171.863 30.4206 171.889 30.2936 171.939 30.1582C172.701 28.347 173.429 27.0182 174.123 26.1719C174.817 25.3086 175.494 24.877 176.154 24.877C176.544 24.877 176.865 24.9701 177.119 25.1563C177.39 25.3255 177.602 25.554 177.754 25.8418C177.906 26.1126 178.016 26.4258 178.084 26.7813C178.152 27.1367 178.186 27.4837 178.186 27.8223C178.186 29.3288 178.143 30.7083 178.059 31.9609C177.991 33.2135 177.915 34.4746 177.83 35.7441ZM209.365 18.0723C209.365 18.7155 209.137 19.2656 208.68 19.7227C208.24 20.1628 207.698 20.3828 207.055 20.3828C206.411 20.3828 205.861 20.1628 205.404 19.7227C204.964 19.2656 204.744 18.7155 204.744 18.0723C204.744 17.7507 204.803 17.4544 204.922 17.1836C205.04 16.8958 205.201 16.6504 205.404 16.4473C205.624 16.2272 205.87 16.0579 206.141 15.9395C206.428 15.821 206.733 15.7617 207.055 15.7617C207.376 15.7617 207.673 15.821 207.943 15.9395C208.231 16.0579 208.477 16.2272 208.68 16.4473C208.9 16.6504 209.069 16.8958 209.187 17.1836C209.306 17.4544 209.365 17.7507 209.365 18.0723ZM205.252 32.9512C205.252 30.5137 205.404 28.0846 205.709 25.6641C205.743 25.4271 205.844 25.224 206.014 25.0547C206.2 24.8685 206.437 24.7754 206.725 24.7754C206.979 24.7754 207.19 24.877 207.359 25.0801C207.529 25.2663 207.613 25.4863 207.613 25.7402C207.613 25.8418 207.588 26.1465 207.537 26.6543C207.503 27.1621 207.452 27.7715 207.385 28.4824C207.334 29.1764 207.283 29.9212 207.232 30.7168C207.199 31.4954 207.182 32.2148 207.182 32.875C207.182 33.7721 207.266 34.5 207.436 35.0586C207.622 35.6003 207.85 36.0234 208.121 36.3281C208.409 36.6328 208.705 36.8359 209.01 36.9375C209.331 37.0391 209.636 37.0898 209.924 37.0898C210.398 37.0898 210.889 36.9206 211.396 36.582C211.904 36.2435 212.421 35.7695 212.945 35.1602C213.487 34.5508 214.029 33.8229 214.57 32.9766C215.112 32.1133 215.645 31.1569 216.17 30.1074C216.255 29.9382 216.373 29.8112 216.525 29.7266C216.678 29.625 216.847 29.5742 217.033 29.5742C217.304 29.5742 217.524 29.6758 217.693 29.8789C217.88 30.082 217.973 30.3021 217.973 30.5391C217.973 30.7083 217.939 30.8522 217.871 30.9707C217.668 31.36 217.414 31.834 217.109 32.3926C216.805 32.9512 216.458 33.5267 216.068 34.1191C215.679 34.7116 215.247 35.304 214.773 35.8965C214.316 36.472 213.826 36.9967 213.301 37.4707C212.776 37.9277 212.226 38.3001 211.65 38.5879C211.075 38.8757 210.491 39.0195 209.898 39.0195C209.137 39.0195 208.468 38.8587 207.893 38.5371C207.317 38.2155 206.826 37.7839 206.42 37.2422C206.031 36.7005 205.734 36.0658 205.531 35.3379C205.345 34.5931 205.252 33.7975 205.252 32.9512ZM207.943 18.0723C207.943 17.8353 207.85 17.6322 207.664 17.4629C207.495 17.2767 207.292 17.1836 207.055 17.1836C206.818 17.1836 206.615 17.2767 206.445 17.4629C206.276 17.6322 206.191 17.8353 206.191 18.0723C206.191 18.3092 206.276 18.5124 206.445 18.6816C206.615 18.8509 206.818 18.9355 207.055 18.9355C207.292 18.9355 207.495 18.8509 207.664 18.6816C207.85 18.5124 207.943 18.3092 207.943 18.0723ZM218.963 28.6094C218.861 28.8802 218.734 29.1849 218.582 29.5234C218.447 29.862 218.286 30.2174 218.1 30.5898C217.947 30.8776 217.786 31.1061 217.617 31.2754C217.465 31.4277 217.262 31.5039 217.008 31.5039C216.72 31.5039 216.492 31.4193 216.322 31.25C216.153 31.0638 216.068 30.8522 216.068 30.6152C216.068 30.5306 216.077 30.4629 216.094 30.4121C216.111 30.3444 216.153 30.2428 216.221 30.1074C216.661 29.2611 216.982 28.5247 217.186 27.8984C217.406 27.2552 217.583 26.5866 217.719 25.8926C217.6 25.5033 217.516 25.1732 217.465 24.9023C217.414 24.6315 217.389 24.3522 217.389 24.0645C217.389 23.5059 217.507 23.0573 217.744 22.7188C217.981 22.3633 218.311 22.1855 218.734 22.1855C219.124 22.1855 219.428 22.3548 219.648 22.6934C219.885 23.0319 220.004 23.4466 220.004 23.9375C220.004 24.2083 219.979 24.4792 219.928 24.75C219.877 25.0208 219.809 25.3594 219.725 25.7656C220.114 26.7305 220.503 27.5853 220.893 28.3301C221.282 29.0749 221.629 29.7604 221.934 30.3867C222.238 30.9961 222.484 31.5716 222.67 32.1133C222.873 32.6549 222.975 33.1966 222.975 33.7383C222.975 34.4492 222.831 35.1263 222.543 35.7695C222.255 36.4128 221.781 36.9544 221.121 37.3945C221.206 37.4115 221.29 37.4199 221.375 37.4199C221.46 37.4199 221.544 37.4199 221.629 37.4199C222.594 37.4199 223.482 37.1999 224.295 36.7598C225.107 36.3197 225.835 35.7526 226.479 35.0586C227.139 34.3477 227.723 33.569 228.23 32.7227C228.738 31.8594 229.178 31.0046 229.551 30.1582C229.72 29.7689 229.957 29.5742 230.262 29.5742C230.549 29.5742 230.77 29.6758 230.922 29.8789C231.091 30.082 231.176 30.3021 231.176 30.5391C231.176 30.6745 231.15 30.8014 231.1 30.9199C230.913 31.377 230.668 31.9017 230.363 32.4941C230.076 33.0697 229.72 33.6706 229.297 34.2969C228.891 34.9063 228.417 35.5072 227.875 36.0996C227.333 36.6921 226.724 37.2253 226.047 37.6992C225.387 38.1563 224.659 38.5202 223.863 38.791C223.068 39.0788 222.196 39.2227 221.248 39.2227C220.114 39.2227 219.056 39.0195 218.074 38.6133C217.109 38.224 216.322 37.5723 215.713 36.6582C215.611 36.5059 215.561 36.3451 215.561 36.1758C215.561 35.9219 215.654 35.7018 215.84 35.5156C216.043 35.3125 216.271 35.2109 216.525 35.2109C216.796 35.2109 217.025 35.304 217.211 35.4902C217.228 35.5241 217.287 35.5833 217.389 35.668C217.49 35.7357 217.609 35.8203 217.744 35.9219C217.896 36.0065 218.066 36.0827 218.252 36.1504C218.455 36.2181 218.658 36.252 218.861 36.252C219.268 36.252 219.606 36.1673 219.877 35.998C220.165 35.8288 220.393 35.6257 220.562 35.3887C220.732 35.1348 220.85 34.8724 220.918 34.6016C221.003 34.3138 221.045 34.0684 221.045 33.8652C221.045 33.4421 220.977 33.0189 220.842 32.5957C220.706 32.1725 220.529 31.7493 220.309 31.3262C220.105 30.903 219.877 30.4714 219.623 30.0313C219.386 29.5742 219.166 29.1003 218.963 28.6094ZM231.354 35.8457C231.624 35.2702 231.937 34.6523 232.293 33.9922C232.648 33.3151 233.029 32.6296 233.436 31.9355C233.842 31.2246 234.273 30.5221 234.73 29.8281C235.187 29.1341 235.661 28.4824 236.152 27.873C236.643 27.2806 237.134 26.8574 237.625 26.6035C238.133 26.3327 238.607 26.1973 239.047 26.1973C239.487 26.1973 239.868 26.2904 240.189 26.4766C240.528 26.6458 240.799 26.8828 241.002 27.1875C241.222 27.4922 241.383 27.8477 241.484 28.2539C241.603 28.6602 241.662 29.1003 241.662 29.5742C241.662 29.9635 241.62 30.4883 241.535 31.1484C241.467 31.7917 241.434 32.4688 241.434 33.1797C241.434 33.5859 241.451 33.9922 241.484 34.3984C241.535 34.7878 241.611 35.1432 241.713 35.4648C241.831 35.7695 242.001 36.0234 242.221 36.2266C242.441 36.4128 242.729 36.5059 243.084 36.5059C243.49 36.5059 243.896 36.3958 244.303 36.1758C244.709 35.9388 245.107 35.6341 245.496 35.2617C245.885 34.8724 246.258 34.4492 246.613 33.9922C246.969 33.5182 247.29 33.0527 247.578 32.5957C247.866 32.1217 248.12 31.6732 248.34 31.25C248.56 30.8099 248.738 30.446 248.873 30.1582C249.042 29.7689 249.339 29.5742 249.762 29.5742C250.049 29.5742 250.278 29.6758 250.447 29.8789C250.617 30.082 250.701 30.3021 250.701 30.5391C250.701 30.6745 250.676 30.8014 250.625 30.9199C250.557 31.0553 250.422 31.3346 250.219 31.7578C250.033 32.181 249.77 32.6719 249.432 33.2305C249.11 33.7891 248.729 34.373 248.289 34.9824C247.849 35.5918 247.358 36.1589 246.816 36.6836C246.292 37.1914 245.716 37.6146 245.09 37.9531C244.48 38.2747 243.837 38.4355 243.16 38.4355C242.382 38.4355 241.755 38.2747 241.281 37.9531C240.807 37.6146 240.435 37.1914 240.164 36.6836C239.91 36.1758 239.732 35.6087 239.631 34.9824C239.546 34.3561 239.504 33.7467 239.504 33.1543C239.504 32.8496 239.512 32.528 239.529 32.1895C239.563 31.834 239.597 31.487 239.631 31.1484C239.665 30.8099 239.69 30.4967 239.707 30.209C239.741 29.9043 239.758 29.6504 239.758 29.4473C239.758 28.9225 239.682 28.5671 239.529 28.3809C239.394 28.1947 239.233 28.1016 239.047 28.1016C238.776 28.1016 238.463 28.2624 238.107 28.584C237.769 28.8887 237.405 29.2949 237.016 29.8027C236.643 30.3105 236.262 30.8861 235.873 31.5293C235.501 32.1556 235.137 32.7819 234.781 33.4082C234.426 34.0345 234.104 34.6354 233.816 35.2109C233.529 35.7695 233.292 36.235 233.105 36.6074C232.75 37.3184 232.386 37.7923 232.014 38.0293C231.658 38.2832 231.337 38.4102 231.049 38.4102C230.524 38.4102 230.118 38.207 229.83 37.8008C229.559 37.3776 229.424 36.8698 229.424 36.2773V34.6777C229.424 31.4785 229.424 28.4316 229.424 25.5371C229.441 22.6257 229.483 19.9258 229.551 17.4375C229.635 14.9323 229.762 12.6725 229.932 10.6582C230.118 8.62695 230.389 6.90039 230.744 5.47852C231.1 4.03971 231.548 2.93099 232.09 2.15234C232.648 1.3737 233.342 0.984375 234.172 0.984375C234.883 0.984375 235.484 1.17904 235.975 1.56836C236.465 1.95768 236.863 2.49089 237.168 3.16797C237.473 3.82813 237.693 4.60677 237.828 5.50391C237.964 6.38411 238.031 7.3151 238.031 8.29688C238.031 10.2943 237.845 12.2578 237.473 14.1875C237.117 16.1003 236.635 17.9707 236.025 19.7988C235.416 21.627 234.705 23.4128 233.893 25.1563C233.08 26.8828 232.225 28.5671 231.328 30.209C231.328 30.5137 231.328 30.8776 231.328 31.3008C231.328 31.724 231.328 32.1471 231.328 32.5703C231.328 32.9935 231.328 33.3913 231.328 33.7637C231.328 34.1361 231.328 34.4323 231.328 34.6523L231.354 35.8457ZM231.354 26.4766C232.064 24.9193 232.708 23.4043 233.283 21.9316C233.876 20.4421 234.375 18.9609 234.781 17.4883C235.204 16.0156 235.535 14.526 235.771 13.0195C236.008 11.4961 236.127 9.91341 236.127 8.27148C236.127 8.00065 236.11 7.56901 236.076 6.97656C236.059 6.38411 235.983 5.7832 235.848 5.17383C235.729 4.56445 235.535 4.03125 235.264 3.57422C235.01 3.11719 234.646 2.88867 234.172 2.88867C233.799 2.88867 233.478 3.14258 233.207 3.65039C232.936 4.14128 232.699 4.81836 232.496 5.68164C232.293 6.52799 232.124 7.51823 231.988 8.65234C231.853 9.78646 231.743 10.9883 231.658 12.2578C231.574 13.5273 231.506 14.8307 231.455 16.168C231.421 17.5052 231.396 18.8086 231.379 20.0781C231.362 21.3307 231.354 22.5072 231.354 23.6074C231.354 24.7077 231.354 25.6641 231.354 26.4766Z" fill="#F0F0F0"></path><path d="M6.83008 35.7441C7.08398 35.2363 7.4056 34.61 7.79492 33.8652C8.20117 33.1035 8.61589 32.3418 9.03906 31.5801C9.47917 30.8184 9.90234 30.099 10.3086 29.4219C10.7318 28.7448 11.0872 28.2285 11.375 27.873C11.8659 27.2806 12.3737 26.8574 12.8984 26.6035C13.4232 26.3496 13.9056 26.2227 14.3457 26.2227C14.7858 26.2227 15.1582 26.3158 15.4629 26.502C15.7845 26.6882 16.0469 26.9421 16.25 27.2637C16.4531 27.5684 16.6055 27.9323 16.707 28.3555C16.8086 28.7617 16.8594 29.2018 16.8594 29.6758C16.8594 29.9466 16.8424 30.3021 16.8086 30.7422C16.7917 31.1823 16.7663 31.6563 16.7324 32.1641C16.7155 32.6719 16.6901 33.1966 16.6562 33.7383C16.6393 34.2799 16.6224 34.7878 16.6055 35.2617C16.8594 34.7539 17.1471 34.1953 17.4687 33.5859C17.7904 32.9596 18.112 32.3418 18.4336 31.7324C18.7721 31.123 19.0937 30.556 19.3984 30.0313C19.7031 29.4896 19.9824 29.0495 20.2363 28.7109C20.9642 27.7122 21.6413 27.0436 22.2676 26.7051C22.9108 26.3665 23.4779 26.1973 23.9687 26.1973C24.5443 26.1973 25.0182 26.3073 25.3906 26.5273C25.763 26.7305 26.0508 27.0013 26.2539 27.3398C26.474 27.6615 26.6263 28.0254 26.7109 28.4316C26.7956 28.8379 26.8379 29.2272 26.8379 29.5996C26.8379 30.1751 26.7956 30.776 26.7109 31.4023C26.6263 32.0286 26.584 32.7734 26.584 33.6367C26.584 33.9922 26.6009 34.3477 26.6348 34.7031C26.6686 35.0586 26.7363 35.3717 26.8379 35.6426C26.9564 35.9134 27.1341 36.1335 27.3711 36.3027C27.6081 36.472 27.9297 36.5566 28.3359 36.5566C28.776 36.5566 29.2077 36.4466 29.6309 36.2266C30.054 35.9896 30.4603 35.6849 30.8496 35.3125C31.2389 34.9401 31.6029 34.5169 31.9414 34.043C32.2969 33.569 32.6185 33.0951 32.9062 32.6211C33.194 32.1471 33.4479 31.6986 33.668 31.2754C33.888 30.8353 34.0658 30.4629 34.2012 30.1582C34.2858 29.972 34.4043 29.8281 34.5566 29.7266C34.709 29.625 34.8783 29.5742 35.0645 29.5742C35.3522 29.5742 35.5807 29.6842 35.75 29.9043C35.9362 30.1074 36.0293 30.3275 36.0293 30.5645C36.0293 30.6829 36.0039 30.8014 35.9531 30.9199C35.8854 31.0553 35.75 31.3431 35.5469 31.7832C35.3437 32.2064 35.0729 32.6973 34.7344 33.2559C34.3958 33.7975 33.998 34.373 33.541 34.9824C33.1009 35.5918 32.61 36.1589 32.0684 36.6836C31.5267 37.1914 30.9427 37.6146 30.3164 37.9531C29.6901 38.2747 29.0299 38.4355 28.3359 38.4355C27.5911 38.4355 26.9818 38.3001 26.5078 38.0293C26.0508 37.7754 25.6784 37.4284 25.3906 36.9883C25.1198 36.5482 24.9336 36.0404 24.832 35.4648C24.7305 34.8893 24.6797 34.2884 24.6797 33.6621C24.6797 32.8327 24.722 32.071 24.8066 31.377C24.8913 30.666 24.9336 30.1159 24.9336 29.7266C24.9336 29.3034 24.8913 28.9818 24.8066 28.7617C24.7389 28.5417 24.6458 28.3893 24.5273 28.3047C24.4258 28.2031 24.3242 28.1523 24.2227 28.1523C24.1211 28.1354 24.0449 28.127 23.9941 28.127C23.5879 28.127 23.1562 28.3555 22.6992 28.8125C22.2591 29.2526 21.8021 29.8451 21.3281 30.5898C20.8542 31.3346 20.3633 32.181 19.8555 33.1289C19.3646 34.0768 18.8652 35.0417 18.3574 36.0234C18.0697 36.5651 17.8242 37.0137 17.6211 37.3691C17.4349 37.7246 17.2487 38.0039 17.0625 38.207C16.8932 38.4102 16.724 38.554 16.5547 38.6387C16.3854 38.7233 16.1992 38.7656 15.9961 38.7656C15.556 38.7656 15.2174 38.6133 14.9805 38.3086C14.7604 38.0039 14.6504 37.6061 14.6504 37.1152C14.6504 36.8613 14.6589 36.5228 14.6758 36.0996C14.6927 35.6764 14.7096 35.2109 14.7266 34.7031C14.7435 34.1953 14.7689 33.6706 14.8027 33.1289C14.8366 32.5872 14.862 32.071 14.8789 31.5801C14.8958 31.0723 14.9128 30.6237 14.9297 30.2344C14.9466 29.8451 14.9551 29.5488 14.9551 29.3457C14.9551 28.9056 14.8789 28.5924 14.7266 28.4063C14.5742 28.2031 14.3965 28.1016 14.1934 28.1016C14.0072 28.1016 13.7956 28.1693 13.5586 28.3047C13.3385 28.4401 13.0762 28.7025 12.7715 29.0918C12.5345 29.3965 12.2298 29.8451 11.8574 30.4375C11.502 31.013 11.1211 31.6563 10.7148 32.3672C10.3086 33.0781 9.90234 33.806 9.49609 34.5508C9.10677 35.2956 8.76823 35.9642 8.48047 36.5566C8.125 37.2676 7.76953 37.75 7.41406 38.0039C7.05859 38.2747 6.71159 38.4102 6.37305 38.4102C5.88216 38.4102 5.51823 38.2663 5.28125 37.9785C5.04427 37.6738 4.92578 37.276 4.92578 36.7852C4.92578 36.7344 4.93424 36.4297 4.95117 35.8711C4.98503 35.3125 5.01888 34.6354 5.05273 33.8398C5.08659 33.0273 5.12044 32.1641 5.1543 31.25C5.20508 30.3359 5.2474 29.4811 5.28125 28.6855C5.29818 28.2624 5.28125 27.873 5.23047 27.5176C5.17969 27.1621 5.11198 26.9505 5.02734 26.8828C4.89193 26.9167 4.62109 27.2298 4.21484 27.8223C3.82552 28.4147 3.32617 29.4473 2.7168 30.9199C2.63216 31.1061 2.50521 31.25 2.33594 31.3516C2.16667 31.4531 1.98893 31.5039 1.80273 31.5039C1.51497 31.5039 1.28646 31.4108 1.11719 31.2246C0.947917 31.0215 0.863281 30.793 0.863281 30.5391C0.863281 30.4206 0.888672 30.2936 0.939453 30.1582C1.70117 28.347 2.42904 27.0182 3.12305 26.1719C3.81706 25.3086 4.49414 24.877 5.1543 24.877C5.54362 24.877 5.86523 24.9701 6.11914 25.1563C6.38997 25.3255 6.60156 25.554 6.75391 25.8418C6.90625 26.1126 7.01628 26.4258 7.08398 26.7813C7.15169 27.1367 7.18555 27.4837 7.18555 27.8223C7.18555 29.3288 7.14323 30.7083 7.05859 31.9609C6.99089 33.2135 6.91471 34.4746 6.83008 35.7441ZM38.3652 18.0723C38.3652 18.7155 38.1367 19.2656 37.6797 19.7227C37.2396 20.1628 36.6979 20.3828 36.0547 20.3828C35.4115 20.3828 34.8613 20.1628 34.4043 19.7227C33.9642 19.2656 33.7441 18.7155 33.7441 18.0723C33.7441 17.7507 33.8034 17.4544 33.9219 17.1836C34.0404 16.8958 34.2012 16.6504 34.4043 16.4473C34.6243 16.2272 34.8698 16.0579 35.1406 15.9395C35.4284 15.821 35.7331 15.7617 36.0547 15.7617C36.3763 15.7617 36.6725 15.821 36.9434 15.9395C37.2311 16.0579 37.4766 16.2272 37.6797 16.4473C37.8997 16.6504 38.069 16.8958 38.1875 17.1836C38.306 17.4544 38.3652 17.7507 38.3652 18.0723ZM34.252 32.9512C34.252 30.5137 34.4043 28.0846 34.709 25.6641C34.7428 25.4271 34.8444 25.224 35.0137 25.0547C35.1999 24.8685 35.4368 24.7754 35.7246 24.7754C35.9785 24.7754 36.1901 24.877 36.3594 25.0801C36.5286 25.2663 36.6133 25.4863 36.6133 25.7402C36.6133 25.8418 36.5879 26.1465 36.5371 26.6543C36.5033 27.1621 36.4525 27.7715 36.3848 28.4824C36.334 29.1764 36.2832 29.9212 36.2324 30.7168C36.1986 31.4954 36.1816 32.2148 36.1816 32.875C36.1816 33.7721 36.2663 34.5 36.4355 35.0586C36.6217 35.6003 36.8503 36.0234 37.1211 36.3281C37.4089 36.6328 37.7051 36.8359 38.0098 36.9375C38.3314 37.0391 38.6361 37.0898 38.9238 37.0898C39.3978 37.0898 39.8887 36.9206 40.3965 36.582C40.9043 36.2435 41.4206 35.7695 41.9453 35.1602C42.487 34.5508 43.0286 33.8229 43.5703 32.9766C44.112 32.1133 44.6452 31.1569 45.1699 30.1074C45.2546 29.9382 45.373 29.8112 45.5254 29.7266C45.6777 29.625 45.847 29.5742 46.0332 29.5742C46.304 29.5742 46.5241 29.6758 46.6934 29.8789C46.8796 30.082 46.9727 30.3021 46.9727 30.5391C46.9727 30.7083 46.9388 30.8522 46.8711 30.9707C46.668 31.36 46.4141 31.834 46.1094 32.3926C45.8047 32.9512 45.4577 33.5267 45.0684 34.1191C44.679 34.7116 44.2474 35.304 43.7734 35.8965C43.3164 36.472 42.8255 36.9967 42.3008 37.4707C41.776 37.9277 41.2259 38.3001 40.6504 38.5879C40.0749 38.8757 39.4909 39.0195 38.8984 39.0195C38.1367 39.0195 37.4681 38.8587 36.8926 38.5371C36.3171 38.2155 35.8262 37.7839 35.4199 37.2422C35.0306 36.7005 34.7344 36.0658 34.5312 35.3379C34.3451 34.5931 34.252 33.7975 34.252 32.9512ZM36.9434 18.0723C36.9434 17.8353 36.8503 17.6322 36.6641 17.4629C36.4948 17.2767 36.2917 17.1836 36.0547 17.1836C35.8177 17.1836 35.6146 17.2767 35.4453 17.4629C35.276 17.6322 35.1914 17.8353 35.1914 18.0723C35.1914 18.3092 35.276 18.5124 35.4453 18.6816C35.6146 18.8509 35.8177 18.9355 36.0547 18.9355C36.2917 18.9355 36.4948 18.8509 36.6641 18.6816C36.8503 18.5124 36.9434 18.3092 36.9434 18.0723ZM47.9629 28.6094C47.8613 28.8802 47.7344 29.1849 47.582 29.5234C47.4466 29.862 47.2858 30.2174 47.0996 30.5898C46.9473 30.8776 46.7865 31.1061 46.6172 31.2754C46.4648 31.4277 46.2617 31.5039 46.0078 31.5039C45.7201 31.5039 45.4915 31.4193 45.3223 31.25C45.153 31.0638 45.0684 30.8522 45.0684 30.6152C45.0684 30.5306 45.0768 30.4629 45.0937 30.4121C45.1107 30.3444 45.153 30.2428 45.2207 30.1074C45.6608 29.2611 45.9824 28.5247 46.1855 27.8984C46.4056 27.2552 46.5833 26.5866 46.7187 25.8926C46.6003 25.5033 46.5156 25.1732 46.4648 24.9023C46.4141 24.6315 46.3887 24.3522 46.3887 24.0645C46.3887 23.5059 46.5072 23.0573 46.7441 22.7188C46.9811 22.3633 47.3112 22.1855 47.7344 22.1855C48.1237 22.1855 48.4284 22.3548 48.6484 22.6934C48.8854 23.0319 49.0039 23.4466 49.0039 23.9375C49.0039 24.2083 48.9785 24.4792 48.9277 24.75C48.877 25.0208 48.8092 25.3594 48.7246 25.7656C49.1139 26.7305 49.5033 27.5853 49.8926 28.3301C50.2819 29.0749 50.6289 29.7604 50.9336 30.3867C51.2383 30.9961 51.4837 31.5716 51.6699 32.1133C51.873 32.6549 51.9746 33.1966 51.9746 33.7383C51.9746 34.4492 51.8307 35.1263 51.543 35.7695C51.2552 36.4128 50.7812 36.9544 50.1211 37.3945C50.2057 37.4115 50.2904 37.4199 50.375 37.4199C50.4596 37.4199 50.5443 37.4199 50.6289 37.4199C51.5937 37.4199 52.4824 37.1999 53.2949 36.7598C54.1074 36.3197 54.8353 35.7526 55.4785 35.0586C56.1387 34.3477 56.7227 33.569 57.2305 32.7227C57.7383 31.8594 58.1784 31.0046 58.5508 30.1582C58.7201 29.7689 58.957 29.5742 59.2617 29.5742C59.5495 29.5742 59.7695 29.6758 59.9219 29.8789C60.0911 30.082 60.1758 30.3021 60.1758 30.5391C60.1758 30.6745 60.1504 30.8014 60.0996 30.9199C59.9134 31.377 59.668 31.9017 59.3633 32.4941C59.0755 33.0697 58.7201 33.6706 58.2969 34.2969C57.8906 34.9063 57.4167 35.5072 56.875 36.0996C56.3333 36.6921 55.724 37.2253 55.0469 37.6992C54.3867 38.1563 53.6589 38.5202 52.8633 38.791C52.0677 39.0788 51.196 39.2227 50.248 39.2227C49.1139 39.2227 48.056 39.0195 47.0742 38.6133C46.1094 38.224 45.3223 37.5723 44.7129 36.6582C44.6113 36.5059 44.5605 36.3451 44.5605 36.1758C44.5605 35.9219 44.6536 35.7018 44.8398 35.5156C45.043 35.3125 45.2715 35.2109 45.5254 35.2109C45.7962 35.2109 46.0247 35.304 46.2109 35.4902C46.2279 35.5241 46.2871 35.5833 46.3887 35.668C46.4902 35.7357 46.6087 35.8203 46.7441 35.9219C46.8965 36.0065 47.0658 36.0827 47.252 36.1504C47.4551 36.2181 47.6582 36.252 47.8613 36.252C48.2676 36.252 48.6061 36.1673 48.877 35.998C49.1647 35.8288 49.3932 35.6257 49.5625 35.3887C49.7318 35.1348 49.8503 34.8724 49.918 34.6016C50.0026 34.3138 50.0449 34.0684 50.0449 33.8652C50.0449 33.4421 49.9772 33.0189 49.8418 32.5957C49.7064 32.1725 49.5286 31.7493 49.3086 31.3262C49.1055 30.903 48.877 30.4714 48.623 30.0313C48.3861 29.5742 48.166 29.1003 47.9629 28.6094ZM60.3535 35.8457C60.6243 35.2702 60.9375 34.6523 61.293 33.9922C61.6484 33.3151 62.0293 32.6296 62.4355 31.9355C62.8418 31.2246 63.2734 30.5221 63.7305 29.8281C64.1875 29.1341 64.6615 28.4824 65.1523 27.873C65.6432 27.2806 66.1341 26.8574 66.625 26.6035C67.1328 26.3327 67.6068 26.1973 68.0469 26.1973C68.487 26.1973 68.8678 26.2904 69.1895 26.4766C69.528 26.6458 69.7988 26.8828 70.002 27.1875C70.222 27.4922 70.3828 27.8477 70.4844 28.2539C70.6029 28.6602 70.6621 29.1003 70.6621 29.5742C70.6621 29.9635 70.6198 30.4883 70.5352 31.1484C70.4674 31.7917 70.4336 32.4688 70.4336 33.1797C70.4336 33.5859 70.4505 33.9922 70.4844 34.3984C70.5352 34.7878 70.6113 35.1432 70.7129 35.4648C70.8314 35.7695 71.0007 36.0234 71.2207 36.2266C71.4408 36.4128 71.7285 36.5059 72.084 36.5059C72.4902 36.5059 72.8965 36.3958 73.3027 36.1758C73.709 35.9388 74.1068 35.6341 74.4961 35.2617C74.8854 34.8724 75.2578 34.4492 75.6133 33.9922C75.9687 33.5182 76.2904 33.0527 76.5781 32.5957C76.8659 32.1217 77.1198 31.6732 77.3398 31.25C77.5599 30.8099 77.7376 30.446 77.873 30.1582C78.0423 29.7689 78.3385 29.5742 78.7617 29.5742C79.0495 29.5742 79.278 29.6758 79.4473 29.8789C79.6165 30.082 79.7012 30.3021 79.7012 30.5391C79.7012 30.6745 79.6758 30.8014 79.625 30.9199C79.5573 31.0553 79.4219 31.3346 79.2187 31.7578C79.0326 32.181 78.7702 32.6719 78.4316 33.2305C78.11 33.7891 77.7292 34.373 77.2891 34.9824C76.849 35.5918 76.3581 36.1589 75.8164 36.6836C75.2917 37.1914 74.7161 37.6146 74.0898 37.9531C73.4805 38.2747 72.8372 38.4355 72.1602 38.4355C71.3815 38.4355 70.7552 38.2747 70.2812 37.9531C69.8073 37.6146 69.4349 37.1914 69.1641 36.6836C68.9102 36.1758 68.7324 35.6087 68.6309 34.9824C68.5462 34.3561 68.5039 33.7467 68.5039 33.1543C68.5039 32.8496 68.5124 32.528 68.5293 32.1895C68.5632 31.834 68.597 31.487 68.6309 31.1484C68.6647 30.8099 68.6901 30.4967 68.707 30.209C68.7409 29.9043 68.7578 29.6504 68.7578 29.4473C68.7578 28.9225 68.6816 28.5671 68.5293 28.3809C68.3939 28.1947 68.2331 28.1016 68.0469 28.1016C67.776 28.1016 67.4629 28.2624 67.1074 28.584C66.7689 28.8887 66.4049 29.2949 66.0156 29.8027C65.6432 30.3105 65.2624 30.8861 64.873 31.5293C64.5007 32.1556 64.1367 32.7819 63.7812 33.4082C63.4258 34.0345 63.1042 34.6354 62.8164 35.2109C62.5286 35.7695 62.2917 36.235 62.1055 36.6074C61.75 37.3184 61.3861 37.7923 61.0137 38.0293C60.6582 38.2832 60.3366 38.4102 60.0488 38.4102C59.5241 38.4102 59.1178 38.207 58.8301 37.8008C58.5592 37.3776 58.4238 36.8698 58.4238 36.2773L58.4238 34.6777C58.4238 31.4785 58.4238 28.4316 58.4238 25.5371C58.4408 22.6257 58.4831 19.9258 58.5508 17.4375C58.6354 14.9323 58.7624 12.6725 58.9316 10.6582C59.1178 8.62695 59.3887 6.90039 59.7441 5.47852C60.0996 4.03971 60.5482 2.93099 61.0898 2.15234C61.6484 1.3737 62.3424 0.984375 63.1719 0.984375C63.8828 0.984375 64.4837 1.17904 64.9746 1.56836C65.4655 1.95768 65.8633 2.49089 66.168 3.16797C66.4727 3.82813 66.6927 4.60677 66.8281 5.50391C66.9635 6.38411 67.0312 7.3151 67.0312 8.29688C67.0312 10.2943 66.8451 12.2578 66.4727 14.1875C66.1172 16.1003 65.6348 17.9707 65.0254 19.7988C64.416 21.627 63.7051 23.4128 62.8926 25.1563C62.0801 26.8828 61.2253 28.5671 60.3281 30.209C60.3281 30.5137 60.3281 30.8776 60.3281 31.3008C60.3281 31.724 60.3281 32.1471 60.3281 32.5703C60.3281 32.9935 60.3281 33.3913 60.3281 33.7637C60.3281 34.1361 60.3281 34.4323 60.3281 34.6523L60.3535 35.8457ZM60.3535 26.4766C61.0645 24.9193 61.7077 23.4043 62.2832 21.9316C62.8757 20.4421 63.375 18.9609 63.7812 17.4883C64.2044 16.0156 64.5345 14.526 64.7715 13.0195C65.0085 11.4961 65.127 9.91341 65.127 8.27148C65.127 8.00065 65.11 7.56901 65.0762 6.97656C65.0592 6.38411 64.9831 5.7832 64.8477 5.17383C64.7292 4.56445 64.5345 4.03125 64.2637 3.57422C64.0098 3.11719 63.6458 2.88867 63.1719 2.88867C62.7995 2.88867 62.4779 3.14258 62.207 3.65039C61.9362 4.14128 61.6992 4.81836 61.4961 5.68164C61.293 6.52799 61.1237 7.51823 60.9883 8.65234C60.8529 9.78646 60.7428 10.9883 60.6582 12.2578C60.5736 13.5273 60.5059 14.8307 60.4551 16.168C60.4212 17.5052 60.3958 18.8086 60.3789 20.0781C60.362 21.3307 60.3535 22.5072 60.3535 23.6074C60.3535 24.7077 60.3535 25.6641 60.3535 26.4766Z" fill="#F0F0F0"></path><path d="M138.084 15.3008C142.454 15.3008 145.996 19.1938 145.996 23.9961H130.172C130.172 19.1938 133.714 15.3008 138.084 15.3008Z" fill="#F0F0F0"></path><path d="M123.281 2C131.316 2 137.829 8.14702 137.829 15.7298V39.8496H108.732V15.7298C108.732 8.14702 115.246 2 123.281 2Z" fill="#F0F0F0"></path><ellipse rx="5.10468" ry="5.11523" transform="matrix(-1 0 0 1 128.13 12.7402)" fill="#F0F0F0"></ellipse><ellipse rx="3.06281" ry="3.06934" transform="matrix(-1 0 0 1 128.13 12.7412)" fill="#212121"></ellipse><rect x="108.732" y="35.2461" width="29.0967" height="4.60254" fill="#F0F0F0"></rect></svg>